<?xml version="1.0" encoding="UTF-8"?>
<svg id="Livello_2" data-name="Livello 2" xmlns="http://www.w3.org/2000/svg" viewBox="0 0 176.8 237.02">
  <defs>
    <style>
      .cls-1 {
        fill: #3c3b56;
      }

      .cls-1, .cls-2 {
        stroke-width: 0px;
      }

      .cls-3 {
        font-family: MyriadPro-Regular, 'Myriad Pro';
      }

      .cls-4 {
        font-size: 218.05px;
      }

      .cls-4, .cls-2 {
        fill: #fff;
      }

      .cls-5 {
        font-family: Rouli, Rouli;
      }
    </style>
  </defs>
  <g id="Livello_3" data-name="Livello 3">
    <g>
      <path class="cls-2" d="M47.97,26.89c3.87-3.14,9.93-6.41,18.17-9.81,7.27-2.41,13.08-3.63,17.45-3.63h1.82l1.09.37c3.87.72,9.93,1.57,18.17,2.54,4.36.72,8.48,2.06,12.36,3.99,2.42,1.22,7.51,5.7,15.26,13.45,9.69,9.45,16.96,17.8,21.81,25.07,6.78,9.69,11.39,21.21,13.81,34.53,1.45,7.75,2.18,15.26,2.18,22.53,0,6.31-.49,11.88-1.46,16.72-.97,6.54-2.42,15.88-4.36,27.98-2.91,18.9-11.87,35.86-26.89,50.88-11.15,11.87-22.29,19.38-33.43,22.53-4.85,1.46-10.18,2.18-15.99,2.18-6.3,0-14.05-.96-23.26-2.91-17.93-4.36-30.29-9.56-37.07-15.63-7.76-6.29-14.3-16.83-19.62-31.62-2.43-7.75-4.12-14.41-5.09-19.99-.97-6.3-1.7-15.63-2.18-27.98,0-1.69-.12-4.05-.36-7.09-.25-3.03-.36-5.27-.36-6.73,0-12.84.97-22.17,2.91-27.98,2.91-10.41,4.6-17.19,5.09-20.35.96-6.06,4.36-13.57,10.17-22.54,5.33-8.48,10.41-14.05,15.26-16.72,4.84-2.42,9.69-5.69,14.54-9.81ZM119.2,48.7c-6.3-5.33-10.9-8.72-13.81-10.18-3.4-1.69-7.99-2.66-13.81-2.9-.49,0-1.33-.06-2.54-.18-1.22-.12-2.31-.18-3.27-.18-9.69,0-17.93,2.67-24.71,8-.25,0-1.15.49-2.73,1.46-1.58.97-3.09,1.94-4.54,2.9-2.91,1.46-5.81,3.4-8.72,5.81-2.43,1.95-4.36,4-5.81,6.18-1.45,3.88-3.63,6.9-6.54,9.09-2.18,2.9-3.94,7.51-5.27,13.81-1.34,6.3-2.97,12.96-4.91,19.99-2.91,8-4.36,16.84-4.36,26.53,0,6.31.48,12.36,1.46,18.17,2.91,17.93,8.23,34.77,15.99,50.51,1.46,3.88,7.02,7.63,16.72,11.27,10.66,3.4,21.56,5.81,32.71,7.27.48,0,1.09.06,1.82.18.73.12,1.33.18,1.82.18,5.33,0,10.18-1.09,14.54-3.27,5.33-2.42,11.87-7.75,19.63-15.99,5.33-5.57,9.2-10.18,11.63-13.81,3.39-4.6,5.57-8.96,6.54-13.08,1.93-4.84,3.39-10.66,4.36-17.44,1.46-6.3,2.91-15.14,4.36-26.53.48-2.18.72-5.69.72-10.54,0-4.12-.24-7.27-.72-9.45-.49-7.27-1.94-14.3-4.36-21.08-2.43-6.78-5.09-11.75-7.99-14.9-2.91-2.9-4.36-5.32-4.36-7.27,0-1.21-4.6-6.05-13.81-14.53Z"/>
      <path class="cls-1" d="M157.91,120.27c-3.66,17.11-6.13,38.24-12.94,57.86-6.94,20-22.78,34.26-41.15,44.99-2.46,1.44-5.51,2.63-8.3,2.65-21.6.16-42.22-3.91-60.89-15.4-1.49-.92-2.78-2.58-3.54-4.19-13.18-28.03-22.66-57.13-18.38-88.48,2.21-16.2,7.1-32.15,12.01-47.83,1.97-6.29,7.06-11.69,11.07-17.25,12.37-17.12,44.85-29.38,64.91-23.97,15.11,4.07,25.8,15.25,34.8,26.88,8.26,10.68,16.48,22.2,18.45,36.44,1.13,8.15,2.27,16.31,3.95,28.3Z"/>
      <text class="cls-4" transform="translate(36.16 182.51)"><tspan class="cls-5" x="0" y="0">2</tspan><tspan class="cls-3" x="94.42" y="0"> </tspan></text>
    </g>
  </g>
</svg>