<?xml version="1.0" encoding="UTF-8"?>
<svg id="Livello_2" data-name="Livello 2" xmlns="http://www.w3.org/2000/svg" viewBox="0 0 170.08 222.78">
  <defs>
    <style>
      .cls-1 {
        fill: #3c3b56;
      }

      .cls-1, .cls-2 {
        stroke-width: 0px;
      }

      .cls-2 {
        fill: #fff;
      }
    </style>
  </defs>
  <g id="Livello_1-2" data-name="Livello 1">
    <g>
      <path class="cls-2" d="M47.97,13.44c3.87-3.14,9.93-6.41,18.17-9.81,7.27-2.41,13.08-3.63,17.45-3.63h1.82l1.09.37c3.87.72,9.93,1.57,18.17,2.54,4.36.72,8.48,2.06,12.36,3.99,2.42,1.22,7.51,5.7,15.26,13.45,9.69,9.45,16.96,17.8,21.81,25.07,6.78,9.69,11.39,21.21,13.81,34.53,1.45,7.75,2.18,15.26,2.18,22.53,0,6.31-.49,11.88-1.46,16.72-.97,6.54-2.42,15.88-4.36,27.98-2.91,18.9-11.87,35.86-26.89,50.88-11.15,11.87-22.29,19.38-33.43,22.53-4.85,1.46-10.18,2.18-15.99,2.18-6.3,0-14.05-.96-23.26-2.91-17.93-4.36-30.29-9.56-37.07-15.63-7.76-6.29-14.3-16.83-19.62-31.62-2.43-7.75-4.12-14.41-5.09-19.99-.97-6.3-1.7-15.63-2.18-27.98,0-1.69-.12-4.05-.36-7.09-.25-3.03-.36-5.27-.36-6.73,0-12.84.97-22.17,2.91-27.98,2.91-10.41,4.6-17.19,5.09-20.35.96-6.06,4.36-13.57,10.17-22.54,5.33-8.48,10.41-14.05,15.26-16.72,4.84-2.42,9.69-5.69,14.54-9.81ZM119.2,35.25c-6.3-5.33-10.9-8.72-13.81-10.18-3.4-1.69-7.99-2.66-13.81-2.9-.49,0-1.33-.06-2.54-.18-1.22-.12-2.31-.18-3.27-.18-9.69,0-17.93,2.67-24.71,8-.25,0-1.15.49-2.73,1.46-1.58.97-3.09,1.94-4.54,2.9-2.91,1.46-5.81,3.4-8.72,5.81-2.43,1.95-4.36,4-5.81,6.18-1.45,3.88-3.63,6.9-6.54,9.09-2.18,2.9-3.94,7.51-5.27,13.81-1.34,6.3-2.97,12.96-4.91,19.99-2.91,8-4.36,16.84-4.36,26.53,0,6.31.48,12.36,1.46,18.17,2.91,17.93,8.23,34.77,15.99,50.51,1.46,3.88,7.02,7.63,16.72,11.27,10.66,3.4,21.56,5.81,32.71,7.27.48,0,1.09.06,1.82.18.73.12,1.33.18,1.82.18,5.33,0,10.18-1.09,14.54-3.27,5.33-2.42,11.87-7.75,19.63-15.99,5.33-5.57,9.2-10.18,11.63-13.81,3.39-4.6,5.57-8.96,6.54-13.08,1.93-4.84,3.39-10.66,4.36-17.44,1.46-6.3,2.91-15.14,4.36-26.53.48-2.18.72-5.69.72-10.54,0-4.12-.24-7.27-.72-9.45-.49-7.27-1.94-14.3-4.36-21.08-2.43-6.78-5.09-11.75-7.99-14.9-2.91-2.9-4.36-5.32-4.36-7.27,0-1.21-4.6-6.05-13.81-14.53Z"/>
      <path class="cls-1" d="M157.91,106.83c-3.66,17.11-6.13,38.24-12.94,57.86-6.94,20-22.78,34.26-41.15,44.99-2.46,1.44-5.51,2.63-8.3,2.65-21.6.16-42.22-3.91-60.89-15.4-1.49-.92-2.78-2.58-3.54-4.19-13.18-28.03-22.66-57.13-18.38-88.48,2.21-16.2,7.1-32.15,12.01-47.83,1.97-6.29,7.06-11.69,11.07-17.25,12.37-17.12,44.85-29.38,64.91-23.97,15.11,4.07,25.8,15.25,34.8,26.88,8.26,10.68,16.48,22.2,18.45,36.44,1.13,8.15,2.27,16.31,3.95,28.3Z"/>
      <path class="cls-2" d="M27.69,124.64c.09-.14.13-.21.18-.28,1.39-1.87,3.05-3.45,4.93-4.83,6.31-4.66,13.08-8.46,20.45-11.18,1.9-.7,3.86-1.24,5.85-1.65,1.26-.26,2.48-.72,3.67-1.24.88-.38,1.77-.73,2.57-1.27.46-.31.94-.6,1.41-.9.67-.42,1.35-.83,2.03-1.25.05-.03.1-.06.15-.09,1.67-.86,3.35-1.71,5.02-2.57.54-.28,1.06-.57,1.6-.84,1.16-.57,2.33-1.12,3.49-1.69.8-.4,1.59-.81,2.38-1.24.59-.32,1.18-.66,1.76-1,1.13-.66,2.27-1.3,3.46-1.84.86-.39,1.71-.78,2.57-1.17.29-.14.58-.29.87-.43,1.41-.69,2.92-1.07,4.39-1.6,1.3-.47,2.62-.88,3.94-1.29,5.13-1.6,10.32-2.94,15.62-3.84,1.83-.31,3.66-.58,5.49-.88,1.03-.17,2.05-.38,3.08-.54,1.58-.25,3.18-.42,4.78-.45.84-.02,1.67-.09,2.51-.12,1.16-.04,2.32.01,3.46.27.6.14,1.2.3,1.8.44,1.24.3,2.26.97,3.14,1.87.51.51.97,1.06,1.47,1.58.33.34.69.6,1.2.67,1.03.15,1.98.55,2.84,1.14.1.07.2.16.38.32-.25,0-.41,0-.56,0-.93-.04-1.85,0-2.76.2-.24.05-.48.14-.71.24-.4.18-.8.37-1.18.6-.46.27-.91.54-1.34.85-1.42,1.03-2.85,2.04-4.37,2.9-.71.4-1.44.72-2.25.88-.66.12-1.09.5-1.21,1.18-.13.74-.49,1.38-.74,2.07-.08.22-.21.42-.35.61-.53.69-.85,1.47-1.02,2.32-.07.37-.19.74-.3,1.1-.13.43-.32.81-.62,1.15-.46.51-.59,1.18-.74,1.82-.13.56-.22,1.13-.39,1.67-.29.9-.76,1.7-1.44,2.4-.36.37-.61.87-.82,1.34-.31.68-.55,1.39-.8,2.1-1.35,3.74-2.98,7.36-4.77,10.91-3.01,6-6.37,11.8-10.27,17.28-1.31,1.85-2.69,3.65-4.25,5.3-.53.56-1.13,1.02-1.82,1.38-.26.13-.5.14-.78-.05,0-.17.01-.36,0-.55-.03-.5-.24-.66-.74-.59-.43.06-.71-.1-.72-.55-.03-.82,0-1.64.02-2.47,0-.19.04-.38.06-.57.03-.32-.04-.61-.29-.84-.19-.18-.27-.41-.28-.67-.04-.61-.03-1.2.16-1.79.12-.36.14-.71.01-1.08-.08-.23-.1-.49-.14-.73-.07-.42-.19-.82-.38-1.21-.26-.55-.36-1.15-.11-1.75.09-.23.09-.46.02-.69-.13-.46-.1-.9.12-1.33.16-.32.14-.62-.1-.9-.06-.07-.09-.16-.15-.22-.48-.5-.56-1.12-.55-1.76,0-.76.15-1.49.52-2.16.07-.13.13-.26.19-.4.12-.25.12-.49-.06-.71-.95-1.15-.67-2.36-.18-3.57.12-.3.29-.58.43-.87.12-.23.19-.48.04-.71-.29-.44-.18-.85.07-1.24.14-.22.2-.44.23-.7.05-.38.13-.75.23-1.12.14-.51.18-1.01-.07-1.5-.13-.25-.14-.49.03-.71.24-.32.27-.65.23-1.03-.08-.64.1-1.23.59-1.69.29-.27.4-.58.33-.99-.06-.31,0-.64.03-.96.03-.32.12-.64.1-.96-.05-.81.28-1.49.71-2.13.18-.27.38-.52.56-.79.18-.27.21-.54-.03-.8-.34-.36-.38-.78-.17-1.22.13-.3.1-.57-.11-.83-.25-.31-.27-.64-.05-.98.16-.24.13-.47.02-.71-.13-.28-.25-.56-.39-.84-.08-.15-.18-.31-.31-.42-.31-.29-.64-.57-.98-.82-.17-.12-.39-.23-.6-.24-1.32-.08-2.64-.14-3.96-.2-.15,0-.3-.01-.44.01-.74.13-1.47,0-2.18-.19-.7-.19-1.4-.3-2.13-.34-.52-.02-1.04-.14-1.56-.22-.95-.16-1.87-.07-2.77.31-.8.34-1.61.66-2.42.95-1.87.66-3.75,1.28-5.62,1.94-.94.33-1.88.67-2.81,1.04-1.57.63-3.13,1.28-4.67,1.96-1.73.77-3.44,1.6-5.17,2.37-1.36.6-2.74,1.15-4.1,1.73-1.83.78-3.67,1.52-5.36,2.58-.87.55-1.74,1.09-2.6,1.67-.73.49-1.51.85-2.32,1.16-1.26.49-2.51,1-3.71,1.63-.97.5-1.97.91-2.95,1.4-1.34.67-2.67,1.36-4.01,2.04-.01,0-.03.02-.04.02-1.51.56-2.76,1.56-4.1,2.39-.75.46-1.53.87-2.29,1.32-.87.52-1.75,1.03-2.53,1.68-1.05.88-2.11,1.74-3.15,2.63-.53.45-1.03.93-1.52,1.41-.69.67-1.42,1.28-2.22,1.8-.28.18-.5.45-.76.66-.08.06-.2.12-.29.1-.06,0-.13-.16-.12-.24,0-.14.04-.29.12-.4.32-.44.66-.86,1.01-1.28.17-.2.35-.4.56-.56,1.32-1.04,2.48-2.26,3.67-3.43.58-.57,1.21-1.07,1.85-1.56.08-.06.18-.11.25-.18.9-.93,2.08-1.49,3.09-2.27.08-.06.17-.11.27-.16,1.63-.85,3.27-1.68,4.88-2.56,1.66-.89,3.28-1.84,4.94-2.74.96-.52,1.95-.96,2.92-1.46,1.6-.84,3.29-1.5,4.94-2.22.51-.22.99-.52,1.43-.85,1.21-.91,2.49-1.67,3.87-2.28,1.01-.45,2.03-.87,3.04-1.3.14-.06.23-.13.2-.29-.03-.15-.14-.23-.29-.22-.37.04-.73.07-1.09.14-1.79.36-3.51.97-5.21,1.64-6.49,2.59-12.65,5.83-18.56,9.57-2.04,1.29-4,2.69-5.85,4.25-.38.32-.78.61-1.18.91-.06.04-.15.04-.31.09Z"/>
    </g>
  </g>
</svg>