<?xml version="1.0" encoding="UTF-8"?>
<svg id="Livello_2" data-name="Livello 2" xmlns="http://www.w3.org/2000/svg" viewBox="0 0 38.33 424.28">
  <defs>
    <style>
      .cls-1 {
        fill: #3b3b54;
        stroke-width: 0px;
      }
    </style>
  </defs>
  <g id="Livello_1-2" data-name="Livello 1">
    <path class="cls-1" d="M2.79,1.08c3.88,4.32,7.79,8.62,11.64,12.97,2.21,2.49,4.34,5.04,6.48,7.59.91,1.08,1.66,2.29,2.62,3.31,3.92,4.14,7.58,8.5,11.08,13.01,1.44,1.86,2.26,3.87,2.65,6.06.42,2.35.67,4.76.67,7.14.06,54.22.06,108.44.11,162.66.05,51.98.05,103.96.28,155.94.04,8.67-3.07,15.59-8.85,21.74-4.11,4.38-7.9,9.07-11.85,13.6-2.5,2.87-5.05,5.71-7.57,8.56-2.52,2.85-5,5.73-7.56,8.55-.72.79-1.66,1.38-2.5,2.07C0,282.89,0,141.49,0,.1c.67-.02,1.34-.05,2.01-.07C2.01.02,1.98,0,1.98,0c.27.36.54.72.81,1.08Z"/>
  </g>
</svg>