<?xml version="1.0" encoding="UTF-8"?>
<svg id="Livello_2" data-name="Livello 2" xmlns="http://www.w3.org/2000/svg" viewBox="0 0 164.37 34.66">
  <defs>
    <style>
      .cls-1 {
        fill: #fff;
        stroke-width: 0px;
      }
    </style>
  </defs>
  <g id="Livello_1-2" data-name="Livello 1">
    <g id="testi_finali" data-name="testi finali">
      <g id="Livello_1-2" data-name="Livello 1-2">
        <g id="save-the-children-name-outline">
          <path class="cls-1" d="M46.12,13.99c-.07.11-.15.21-.25.29-.1.07-.22.1-.34.1-.14,0-.28-.05-.4-.12-.14-.08-.3-.17-.48-.26-.2-.11-.4-.19-.62-.26-.26-.08-.52-.12-.79-.12-.41-.03-.81.08-1.14.32-.25.22-.39.55-.37.88,0,.22.08.43.23.59.17.17.37.31.59.4.27.12.55.23.84.31.31.09.63.2.96.31.33.12.65.25.96.41.31.15.59.35.84.6.25.25.45.55.59.88.16.4.24.82.23,1.25,0,.52-.09,1.04-.28,1.52-.18.47-.46.89-.82,1.24-.38.36-.83.65-1.32.83-.57.21-1.18.31-1.78.3-.38,0-.75-.04-1.12-.11-.38-.08-.74-.18-1.1-.32-.35-.13-.68-.29-1-.48-.29-.17-.57-.39-.81-.63l.81-1.27c.06-.1.15-.18.25-.23.11-.06.23-.09.35-.09.17,0,.34.06.49.15.16.1.35.21.56.34.23.13.47.25.71.34.3.11.63.16.95.15.41.02.81-.09,1.15-.32.29-.26.44-.64.41-1.03.01-.24-.07-.48-.23-.67-.17-.18-.37-.33-.59-.43-.27-.12-.55-.22-.83-.3-.31-.08-.63-.18-.96-.29-.33-.11-.65-.23-.96-.39-.31-.15-.59-.36-.83-.6-.26-.27-.46-.59-.59-.93-.16-.44-.24-.91-.23-1.38,0-.44.09-.88.26-1.29.18-.42.45-.8.78-1.12.37-.34.79-.61,1.26-.78.55-.2,1.13-.3,1.71-.29.35,0,.7.03,1.05.08.33.05.66.14.97.25.3.11.58.24.86.39.26.15.5.32.71.52l-.67,1.26h0Z"/>
          <path class="cls-1" d="M53.96,23.34c-.18,0-.36-.02-.52-.09-.14-.09-.24-.23-.29-.39l-.17-.44c-.2.17-.4.32-.59.45-.18.13-.38.24-.58.33-.2.09-.42.16-.64.2-.25.05-.5.07-.75.07-.34,0-.68-.05-1.01-.14-.28-.09-.55-.23-.77-.43-.21-.19-.38-.43-.49-.7-.12-.31-.18-.64-.17-.97,0-.31.08-.61.22-.89.18-.34.44-.62.76-.83.45-.29.94-.5,1.45-.62.75-.18,1.53-.27,2.31-.25v-.35c.03-.37-.07-.74-.29-1.04-.22-.22-.52-.34-.83-.32-.24,0-.47.02-.7.09-.17.06-.33.13-.49.21-.14.08-.28.15-.42.21-.15.07-.32.1-.48.09-.15,0-.3-.04-.43-.12-.11-.08-.21-.18-.28-.3l-.44-.76c.47-.42,1.03-.75,1.63-.96.62-.21,1.27-.32,1.92-.32.45,0,.9.08,1.33.24.38.15.72.37,1,.66.28.29.49.63.63,1.01.15.41.22.84.22,1.28v5.06h-1.11ZM51.18,21.86c.28,0,.56-.05.82-.16.27-.13.51-.31.71-.53v-1.11c-.4,0-.8.02-1.2.1-.26.05-.51.12-.74.24-.15.07-.29.18-.38.32-.07.12-.11.26-.11.39-.02.22.06.44.23.59.2.13.43.19.66.17h0Z"/>
          <path class="cls-1" d="M61.07,23.34h-2.2l-3.14-8.1h2.02c.15,0,.3.04.43.12.11.07.19.18.24.3l1.12,3.63c.09.3.17.59.25.87s.15.56.21.84c.06-.28.13-.56.21-.84s.17-.57.26-.87l1.17-3.63c.05-.12.13-.23.23-.3.12-.08.26-.12.41-.12h1.92l-3.14,8.1h0Z"/>
          <path class="cls-1" d="M68.49,15.11c.5,0,1,.08,1.47.25.43.16.82.41,1.15.73.33.33.59.73.75,1.17.19.5.28,1.03.27,1.57,0,.15,0,.3-.02.44,0,.1-.04.19-.09.27-.04.07-.1.11-.17.14-.09.03-.18.04-.27.04h-4.67c.02.55.24,1.07.62,1.47.35.31.82.48,1.29.46.25,0,.49-.03.73-.1.19-.06.37-.14.54-.23.16-.08.3-.16.44-.23.13-.07.27-.1.42-.1.17,0,.34.07.44.21l.7.87c-.23.27-.5.51-.81.7-.28.17-.58.32-.89.42-.3.1-.6.17-.91.21-.29.04-.58.06-.87.06-.54,0-1.08-.09-1.6-.28-.49-.18-.93-.46-1.3-.82-.39-.38-.69-.85-.88-1.36-.23-.6-.34-1.25-.32-1.89,0-.53.09-1.05.28-1.54.36-.97,1.1-1.74,2.06-2.14.53-.22,1.1-.33,1.67-.32h0ZM68.54,16.78c-.4-.02-.79.12-1.08.39-.29.32-.47.71-.52,1.14h3.02c0-.19-.02-.38-.08-.56-.05-.18-.13-.34-.24-.49-.12-.15-.27-.27-.44-.35-.21-.09-.44-.14-.66-.13h0Z"/>
          <path class="cls-1" d="M79.62,23.46c-.35,0-.69-.05-1.02-.17-.57-.2-1.01-.65-1.2-1.22-.11-.32-.16-.64-.16-.98v-4.19h-.69c-.24,0-.44-.18-.45-.42v-1l1.29-.25.48-1.98c.05-.24.28-.41.53-.38h1.27v2.37h1.97v1.66h-1.97v4.02c0,.17.04.33.14.47.09.12.24.19.39.18.08,0,.15,0,.22-.03.05-.02.11-.04.16-.06.05-.02.09-.05.13-.06.04-.02.09-.03.14-.03.06,0,.12.02.17.05.05.05.1.1.14.16l.73,1.15c-.32.24-.68.41-1.05.53-.39.12-.8.18-1.21.18h0Z"/>
          <path class="cls-1" d="M82.99,23.34v-11.7h2.42v4.31c.29-.25.61-.45.95-.6.39-.16.8-.24,1.22-.23.4,0,.81.07,1.18.23.33.15.63.37.86.64.24.29.42.62.53.98.12.4.18.81.18,1.23v5.15h-2.42v-5.15c.02-.33-.08-.66-.27-.93-.2-.23-.5-.35-.81-.33-.26,0-.52.06-.75.17-.24.12-.47.28-.67.46v5.77h-2.42,0Z"/>
          <path class="cls-1" d="M95.61,15.11c.5,0,1,.08,1.47.25.43.16.82.41,1.15.73.33.33.59.73.75,1.17.19.5.28,1.03.27,1.57,0,.15,0,.3-.02.44,0,.1-.04.19-.09.27-.04.07-.1.11-.17.14-.09.03-.18.04-.27.04h-4.67c.02.55.24,1.07.62,1.47.35.31.82.48,1.29.46.25,0,.49-.03.73-.1.19-.06.37-.14.54-.23.16-.08.3-.16.44-.23.13-.07.27-.1.42-.1.17,0,.34.07.44.21l.7.87c-.23.27-.5.51-.81.7-.28.17-.58.32-.89.42-.3.1-.6.17-.91.21-.29.04-.58.06-.87.06-.54,0-1.08-.09-1.6-.28-.49-.18-.93-.46-1.3-.82-.39-.38-.69-.85-.88-1.36-.23-.6-.34-1.25-.32-1.89,0-.53.09-1.05.28-1.54.36-.97,1.1-1.74,2.06-2.14.53-.22,1.1-.33,1.67-.32h0ZM95.66,16.78c-.4-.02-.79.12-1.08.39-.29.32-.47.71-.52,1.14h3.02c0-.19-.02-.38-.08-.56-.05-.18-.13-.34-.24-.49-.12-.15-.27-.27-.44-.35-.21-.09-.44-.14-.66-.13h0Z"/>
          <path class="cls-1" d="M111.88,20.3c.07,0,.13.01.19.04.07.03.13.07.18.13l1.08,1.14c-.46.61-1.07,1.09-1.77,1.4-.8.33-1.66.49-2.52.47-.82.02-1.64-.14-2.4-.45-.68-.29-1.29-.72-1.79-1.26-.5-.55-.89-1.2-1.13-1.9-.27-.77-.4-1.57-.39-2.39,0-.83.14-1.64.45-2.41.29-.71.72-1.36,1.26-1.9.55-.54,1.21-.96,1.94-1.24.79-.3,1.64-.45,2.49-.44.42,0,.83.04,1.24.12.37.07.74.18,1.09.32.33.13.64.29.93.49.27.18.53.39.76.63l-.92,1.23c-.06.08-.13.15-.21.2-.1.07-.22.1-.34.09-.1,0-.19-.02-.27-.06-.09-.05-.19-.1-.27-.16-.1-.06-.2-.13-.32-.2-.13-.08-.27-.15-.41-.2-.18-.07-.37-.12-.56-.16-.25-.05-.5-.07-.75-.06-.46,0-.93.08-1.35.26-.4.17-.76.42-1.05.75-.3.34-.53.75-.69,1.18-.17.5-.25,1.02-.25,1.55,0,.54.08,1.08.25,1.6.14.43.37.83.67,1.18.27.31.61.56.99.73.38.17.79.25,1.21.25.23,0,.45-.01.68-.04.19-.02.38-.06.57-.13.17-.06.34-.14.5-.23.17-.1.33-.22.48-.35.06-.05.14-.1.21-.13.07-.03.15-.05.23-.05h0Z"/>
          <path class="cls-1" d="M114.58,23.34v-11.7h2.42v4.31c.29-.25.6-.45.95-.6.39-.16.8-.24,1.22-.23.4,0,.81.07,1.18.23.33.15.63.37.86.64.24.29.42.62.53.98.12.4.18.81.18,1.23v5.15h-2.42v-5.15c.02-.33-.08-.66-.27-.93-.2-.23-.5-.35-.81-.33-.26,0-.52.06-.75.17-.24.12-.47.28-.67.46v5.78h-2.42,0Z"/>
          <path class="cls-1" d="M126.56,13.01c0,.19-.04.37-.12.54-.08.17-.19.32-.32.44-.14.13-.3.23-.47.3-.18.08-.38.11-.57.11s-.38-.04-.56-.11c-.17-.07-.32-.18-.46-.3s-.24-.28-.31-.44c-.08-.17-.11-.35-.11-.54s.04-.38.11-.56c.08-.17.18-.32.31-.45.13-.13.29-.23.46-.3.17-.08.36-.11.56-.11s.39.04.57.11c.35.14.64.41.79.76.08.17.12.36.12.56ZM126.28,15.23v8.1h-2.42v-8.1h2.42Z"/>
          <path class="cls-1" d="M130.91,11.64v11.7h-2.42v-11.7h2.42Z"/>
          <path class="cls-1" d="M138.63,23.34c-.13,0-.26-.03-.38-.1-.11-.07-.18-.18-.21-.3l-.19-.62c-.16.17-.33.32-.51.47-.18.14-.37.26-.57.36-.21.11-.44.18-.66.23-.25.06-.51.08-.77.08-.41,0-.81-.09-1.17-.28-.37-.2-.69-.47-.93-.81-.28-.39-.49-.84-.61-1.3-.16-.57-.23-1.16-.22-1.76,0-.57.08-1.14.25-1.68.15-.49.39-.94.71-1.34.3-.37.67-.67,1.1-.89.44-.22.93-.32,1.42-.32.36,0,.72.05,1.06.18.29.12.55.28.78.48v-4.11h2.42v11.7h-1.5ZM136.17,21.6c.16,0,.32-.02.48-.05.14-.03.27-.08.39-.14.12-.06.24-.14.34-.23.11-.1.22-.21.32-.33v-3.44c-.16-.19-.37-.33-.6-.43-.21-.08-.44-.12-.67-.12-.21,0-.42.04-.62.13-.2.1-.37.24-.49.43-.15.23-.26.49-.32.76-.08.37-.12.75-.12,1.13,0,.36.02.72.09,1.08.05.25.14.49.26.71.1.17.23.3.4.39.16.08.34.12.52.12Z"/>
          <path class="cls-1" d="M142.07,23.34v-8.1h1.44c.1,0,.2,0,.3.03.08.02.14.05.2.1.06.05.1.11.13.17.03.09.06.17.08.27l.13.76c.26-.42.6-.79,1-1.08.35-.26.78-.4,1.21-.4.32-.02.63.08.89.26l-.31,1.78c0,.09-.05.17-.13.23-.08.05-.16.07-.25.07-.11,0-.21-.01-.31-.04-.15-.03-.3-.04-.45-.04-.64,0-1.14.34-1.5,1.02v4.97h-2.43Z"/>
          <path class="cls-1" d="M151.83,15.11c.5,0,1,.08,1.47.25.43.16.82.41,1.15.73.33.33.59.73.75,1.17.19.5.28,1.03.27,1.57,0,.15,0,.3-.02.44,0,.1-.04.19-.09.27-.04.07-.1.11-.17.14-.09.03-.18.04-.27.04h-4.67c.02.55.24,1.07.62,1.47.35.31.82.48,1.29.46.25,0,.49-.03.73-.1.19-.06.37-.14.54-.23.16-.08.3-.16.44-.23.13-.07.27-.1.42-.1.17,0,.34.07.44.21l.7.87c-.23.27-.5.51-.81.7-.28.17-.58.32-.89.42-.3.1-.6.17-.91.21-.29.04-.58.06-.87.06-.54,0-1.08-.09-1.6-.28-.49-.18-.93-.46-1.3-.82-.39-.38-.69-.85-.88-1.36-.23-.6-.34-1.25-.32-1.89,0-.53.09-1.05.28-1.54.36-.97,1.1-1.74,2.06-2.14.53-.22,1.1-.33,1.67-.32h0ZM151.88,16.78c-.4-.02-.79.12-1.08.39-.29.32-.47.71-.52,1.14h3.02c0-.19-.02-.38-.08-.56-.05-.18-.13-.34-.24-.49-.12-.15-.27-.27-.44-.35-.21-.09-.44-.14-.66-.13h0Z"/>
          <path class="cls-1" d="M157.02,23.34v-8.1h1.5c.13,0,.26.03.38.1.11.07.18.18.22.3l.14.47c.15-.14.32-.28.48-.41.17-.13.35-.23.53-.32.2-.09.41-.16.62-.2.24-.05.48-.08.72-.08.4,0,.81.07,1.18.23.33.15.63.37.86.64.24.29.42.62.53.98.12.4.18.81.18,1.23v5.15h-2.42v-5.15c.02-.33-.08-.66-.27-.93-.2-.23-.5-.35-.81-.33-.26,0-.52.06-.75.17-.24.12-.47.28-.67.46v5.77h-2.42,0Z"/>
        </g>
        <g id="save-the-children-symbol">
          <path class="cls-1" d="M30.19,8.51c1.43-1.7,2.07-2.48,1.93-2.9-.18-.39-.53-.68-.94-.79-.54-.2-1.28-.3-1.65-.08-.3.26-.57.54-.81.85l-.45.51h0c-.29-.29-.6-.59-.9-.85-2.2-1.91-4.89-3.16-7.78-3.61C18.42.39,16.9-.18,15.4.05c-1.3.23-2.43.99-3.12,2.12-2.96.91-5.63,2.6-7.72,4.89h0c-.47-.14-1.51.04-2.15.39-.31.13-.54.39-.63.71-.04.2.05.51.85,1.43h0C.56,12.87-.33,16.75.11,20.59c.44,3.85,2.29,7.4,5.2,9.95,1.02.89,2.15,1.64,3.37,2.23,5.64,2.72,12.26,2.49,17.69-.63h0c.44-.26.61-.82.38-1.27l-.07-.15c-.89-2-3.6-8.07-2.09-13.62.63-2.32,2.45-4.79,4.02-6.73h0c1.68,2.6,2.52,5.64,2.41,8.73-.1,2.82-1.06,5.55-2.76,7.81-.08.09-.1.22-.05.33l.17.4c.08.17.27.24.44.16.05-.02.09-.05.12-.09h0c4.45-5.64,4.98-13.41,1.24-19.23h0ZM10.53,21.61c-.59,3.04-.72,6.16-.4,9.24h0c-1.15-.59-2.23-1.31-3.21-2.16-2.64-2.29-4.43-5.42-5.06-8.87-.59-3.22-.05-6.55,1.53-9.42h0c.6.62,1.32,1.34,2.07,2.09,1.85,1.83,3.94,3.91,4.96,5.39.59.86.41,1.94.1,3.73M26.59,7.86c-3.41,3.42-6.62,5.28-9.54,5.5-2.25.17-4.63-.5-7.08-1.99-1.63-1.03-3.14-2.23-4.52-3.59l-.1-.09h0c1.68-1.79,3.8-3.11,6.15-3.81h0c-.25.95-.3,1.94-.14,2.9.24,1.71,1.14,3.25,2.51,4.3,1.91,1.5,4.68,1.16,6.18-.76.06-.08.12-.16.17-.24.98-1.42,1.36-3.16,1.07-4.86-.05-.32-.12-.65-.22-.96h0c1.71.66,3.29,1.6,4.67,2.81.28.25.57.51.84.79h0Z"/>
        </g>
      </g>
    </g>
  </g>
</svg>